<svg id="svg" version="1.1" xmlns="http://www.w3.org/2000/svg" xmlns:xlink="http://www.w3.org/1999/xlink" width="400" height="66.25855239467052" viewBox="0, 0, 400,66.25855239467052"><g id="svgg"><path id="path0" d="M16.560 25.489 C 16.089 25.564,15.211 25.785,14.609 25.980 C 14.006 26.174,13.406 26.333,13.274 26.333 C 13.142 26.333,12.606 26.558,12.083 26.833 C 11.561 27.108,11.066 27.333,10.984 27.333 C 10.492 27.333,6.333 30.862,6.333 31.278 C 6.333 31.391,6.229 31.543,6.102 31.617 C 5.974 31.690,5.628 32.162,5.332 32.667 C 5.037 33.171,4.739 33.621,4.671 33.667 C 4.468 33.802,3.327 36.526,3.170 37.250 C 3.090 37.617,2.867 38.629,2.675 39.500 C 1.813 43.398,2.411 48.851,4.081 52.333 C 5.089 54.435,6.919 57.003,7.804 57.558 C 7.929 57.636,8.230 57.880,8.473 58.099 C 13.618 62.728,23.711 63.145,29.833 58.981 C 30.723 58.376,32.833 56.425,32.833 56.207 C 32.833 56.148,33.044 55.871,33.301 55.591 C 33.732 55.123,35.000 53.148,35.000 52.945 C 35.000 52.896,35.216 52.383,35.480 51.803 C 35.744 51.224,36.010 50.469,36.071 50.125 L 36.182 49.500 33.586 49.500 C 31.260 49.500,30.980 49.530,30.897 49.792 C 30.750 50.253,30.123 51.395,29.884 51.637 C 29.765 51.758,29.667 51.947,29.667 52.056 C 29.667 52.242,27.614 54.423,26.878 55.018 C 26.340 55.454,23.862 56.669,23.370 56.739 C 23.121 56.774,22.504 56.891,22.000 56.998 C 20.812 57.251,18.333 57.262,17.167 57.019 C 16.662 56.914,16.085 56.797,15.884 56.759 C 13.950 56.391,10.155 53.383,9.482 51.687 C 9.396 51.468,9.188 51.093,9.020 50.853 C 6.480 47.224,7.137 38.208,10.212 34.500 C 11.172 33.343,11.980 32.500,12.129 32.500 C 12.213 32.500,12.425 32.342,12.599 32.148 C 14.121 30.463,18.905 29.572,22.450 30.314 C 25.398 30.931,28.889 33.289,29.679 35.196 C 29.786 35.455,29.929 35.667,29.997 35.667 C 30.065 35.667,30.323 36.117,30.570 36.667 L 31.019 37.667 33.593 37.667 C 35.008 37.667,36.167 37.625,36.167 37.574 C 36.167 37.197,35.707 35.787,35.388 35.184 C 35.175 34.780,35.000 34.373,35.000 34.278 C 35.000 33.791,31.973 29.750,31.436 29.520 C 31.355 29.486,31.021 29.205,30.693 28.895 C 30.365 28.586,30.035 28.333,29.958 28.333 C 29.882 28.333,29.666 28.190,29.478 28.015 C 29.025 27.593,26.735 26.484,26.000 26.332 C 25.679 26.265,24.817 26.044,24.083 25.841 C 22.610 25.433,18.203 25.227,16.560 25.489 M231.833 43.417 L 231.833 61.333 234.250 61.333 L 236.667 61.333 236.667 53.167 L 236.667 45.000 245.583 45.000 L 254.500 45.000 254.500 53.167 L 254.500 61.333 257.001 61.333 L 259.502 61.333 259.459 43.458 L 259.417 25.583 256.958 25.537 L 254.500 25.491 254.500 33.246 L 254.500 41.000 245.583 41.000 L 236.667 41.000 236.667 33.250 L 236.667 25.500 234.250 25.500 L 231.833 25.500 231.833 43.417 " stroke="none" fill="#9ccc4c" fill-rule="evenodd"></path><path id="path1" d="M14.833 11.667 L 14.833 19.833 16.000 19.833 L 17.167 19.833 17.168 16.792 C 17.169 12.255,17.463 11.006,18.748 10.081 C 19.527 9.521,21.161 9.308,21.852 9.676 C 22.570 10.059,23.333 10.745,23.333 11.008 C 23.333 11.150,23.427 11.360,23.542 11.475 C 23.694 11.627,23.764 12.779,23.802 15.758 L 23.855 19.833 25.023 19.833 L 26.191 19.833 26.131 15.375 C 26.063 10.370,25.906 9.655,24.639 8.583 C 22.596 6.857,19.034 7.084,17.735 9.024 C 17.209 9.809,17.167 9.622,17.167 6.500 L 17.167 3.500 16.000 3.500 L 14.833 3.500 14.833 11.667 M2.500 5.248 L 2.500 6.333 4.583 6.333 L 6.667 6.333 6.667 13.083 L 6.667 19.833 7.917 19.833 L 9.167 19.833 9.167 13.088 L 9.167 6.343 11.292 6.297 L 13.417 6.250 13.417 5.250 L 13.417 4.250 7.958 4.206 L 2.500 4.162 2.500 5.248 M32.333 7.656 C 27.881 9.019,26.572 16.733,30.428 18.882 C 30.627 18.993,31.118 19.266,31.520 19.490 C 34.576 21.193,39.178 19.197,39.913 15.851 L 40.026 15.333 38.790 15.333 C 37.519 15.333,37.176 15.555,37.164 16.383 C 37.158 16.778,35.807 17.715,35.023 17.866 C 32.640 18.327,30.538 16.742,30.502 14.458 C 30.501 14.390,32.645 14.333,35.267 14.333 L 40.033 14.333 39.969 12.875 C 39.797 9.004,36.127 6.495,32.333 7.656 M36.195 10.110 C 37.022 10.709,37.452 11.389,37.603 12.337 L 37.709 13.000 34.087 13.000 C 31.015 13.000,30.478 12.964,30.556 12.762 C 30.606 12.631,30.697 12.256,30.759 11.929 C 31.154 9.823,34.331 8.760,36.195 10.110 M201.833 30.000 L 201.833 33.500 199.833 33.500 L 197.833 33.500 197.833 35.667 L 197.833 37.833 199.833 37.833 L 201.833 37.833 201.837 45.625 C 201.840 54.485,201.983 56.047,202.956 57.917 C 203.366 58.704,204.332 59.833,204.594 59.833 C 204.726 59.833,204.833 59.890,204.833 59.959 C 204.833 60.671,208.001 61.333,211.408 61.333 L 214.167 61.333 214.167 59.167 L 214.167 57.000 212.208 56.998 C 206.919 56.993,206.932 57.020,206.866 46.125 L 206.816 37.833 210.491 37.833 L 214.167 37.833 214.167 35.667 L 214.167 33.500 210.500 33.500 L 206.833 33.500 206.833 30.000 L 206.833 26.500 204.333 26.500 L 201.833 26.500 201.833 30.000 M149.000 33.116 C 146.683 33.309,142.836 34.610,142.156 35.429 C 142.048 35.560,141.882 35.667,141.788 35.667 C 141.498 35.667,139.000 38.229,139.000 38.526 C 139.000 38.594,138.775 38.983,138.500 39.391 C 138.225 39.798,138.000 40.186,138.000 40.254 C 138.000 40.321,137.746 41.022,137.435 41.813 C 136.377 44.502,136.320 50.356,137.328 52.833 C 137.533 53.337,137.811 54.050,137.947 54.417 C 138.082 54.783,138.374 55.322,138.596 55.614 C 138.818 55.906,139.000 56.193,139.000 56.252 C 139.000 56.311,139.394 56.813,139.875 57.366 C 143.329 61.338,149.248 62.778,155.083 61.066 C 156.482 60.656,159.167 59.276,159.167 58.968 C 159.167 58.894,159.260 58.833,159.375 58.833 C 160.338 58.832,163.160 54.212,163.372 52.292 L 163.459 51.500 160.813 51.500 L 158.167 51.500 158.167 51.944 C 158.167 52.975,156.602 55.228,155.250 56.146 C 152.380 58.094,147.388 58.089,145.069 56.136 C 144.817 55.924,144.355 55.530,144.040 55.261 C 143.402 54.714,142.169 52.907,142.163 52.509 C 142.160 52.366,142.021 51.837,141.853 51.333 C 141.684 50.829,141.493 49.985,141.428 49.458 L 141.309 48.500 152.383 48.500 L 163.456 48.500 163.560 47.875 C 164.014 45.126,163.054 40.359,161.729 38.779 C 161.511 38.520,161.333 38.257,161.333 38.195 C 161.333 37.972,159.541 36.207,158.655 35.558 C 156.279 33.818,152.386 32.833,149.000 33.116 M180.583 33.106 C 177.034 33.431,174.362 34.529,172.058 36.609 C 171.475 37.136,169.833 39.243,169.833 39.466 C 169.833 39.544,169.614 40.015,169.346 40.512 C 166.351 46.070,168.084 55.042,172.913 58.976 C 178.113 63.213,188.164 62.458,192.121 57.533 C 192.467 57.102,192.844 56.651,192.958 56.530 C 193.073 56.409,193.167 56.243,193.167 56.162 C 193.167 56.081,193.342 55.757,193.555 55.442 C 193.957 54.850,194.719 52.722,194.922 51.625 L 195.037 51.000 192.448 51.000 L 189.859 51.000 189.662 51.625 C 188.500 55.300,185.696 57.333,181.750 57.362 C 180.013 57.375,177.898 56.798,177.069 56.085 C 176.802 55.855,176.539 55.667,176.485 55.667 C 176.343 55.667,175.000 54.368,175.000 54.231 C 175.000 54.167,174.815 53.872,174.589 53.576 C 174.363 53.279,174.060 52.710,173.917 52.310 C 173.773 51.910,173.529 51.246,173.375 50.833 C 172.850 49.432,172.965 45.256,173.577 43.500 C 174.250 41.567,176.196 38.833,176.899 38.833 C 176.958 38.833,177.301 38.648,177.660 38.421 C 181.718 35.859,188.181 38.359,189.605 43.042 L 189.846 43.833 192.442 43.833 L 195.037 43.833 194.920 43.208 C 194.096 38.815,190.370 34.557,186.661 33.770 C 186.435 33.723,185.762 33.573,185.167 33.438 C 184.005 33.175,181.671 33.006,180.583 33.106 M277.583 33.172 C 275.750 33.383,274.069 33.793,273.170 34.248 C 272.716 34.478,272.274 34.667,272.189 34.667 C 271.927 34.667,270.292 35.824,269.500 36.571 C 266.209 39.673,264.957 43.506,265.326 49.340 C 265.501 52.104,266.977 55.949,268.190 56.801 C 268.360 56.921,268.500 57.110,268.500 57.220 C 268.500 57.405,269.108 57.982,270.417 59.040 C 274.754 62.546,283.275 62.622,287.833 59.196 C 289.060 58.274,290.667 56.684,290.667 56.392 C 290.667 56.331,290.851 56.040,291.077 55.744 C 291.947 54.603,292.700 52.551,292.971 50.583 C 293.314 48.099,293.343 47.420,293.175 45.917 C 292.874 43.222,292.705 42.394,292.266 41.466 C 292.028 40.963,291.833 40.472,291.833 40.376 C 291.833 40.279,291.571 39.810,291.250 39.333 C 290.929 38.857,290.667 38.416,290.667 38.354 C 290.667 38.292,290.460 38.040,290.208 37.793 C 289.956 37.547,289.375 36.970,288.917 36.510 C 288.458 36.050,287.999 35.672,287.895 35.670 C 287.792 35.668,287.619 35.560,287.511 35.429 C 286.369 34.053,280.843 32.797,277.583 33.172 M338.000 33.154 C 332.607 33.910,329.839 36.797,330.027 41.470 C 330.168 44.983,332.663 47.518,336.784 48.334 C 337.423 48.461,340.520 49.222,341.750 49.555 C 342.993 49.892,344.410 50.533,344.940 50.998 C 345.230 51.253,345.531 51.489,345.609 51.522 C 346.457 51.889,346.711 54.463,346.024 55.744 C 344.633 58.340,340.562 58.807,337.051 56.774 C 336.066 56.203,335.083 54.712,334.662 53.150 L 334.487 52.500 332.160 52.500 C 329.527 52.500,329.694 52.387,329.994 53.970 C 331.121 59.911,338.678 63.348,345.750 61.136 C 351.898 59.213,353.180 51.789,348.038 47.887 C 347.115 47.187,342.775 45.816,339.359 45.146 C 333.147 43.928,333.029 37.218,339.212 36.874 C 341.445 36.749,344.833 38.094,344.833 39.104 C 344.833 39.167,345.014 39.456,345.235 39.746 C 345.600 40.224,345.758 40.658,346.071 42.046 L 346.175 42.509 348.546 42.463 L 350.917 42.417 350.859 41.766 C 350.673 39.663,349.139 36.968,347.146 35.241 C 345.417 33.743,340.996 32.734,338.000 33.154 M367.750 33.171 C 365.868 33.389,364.152 33.813,363.361 34.255 C 362.956 34.481,362.527 34.667,362.408 34.667 C 362.288 34.667,362.091 34.761,361.970 34.875 C 361.849 34.990,361.450 35.282,361.083 35.525 C 355.113 39.472,353.716 50.452,358.393 56.667 C 363.697 63.713,376.666 63.383,380.951 56.092 C 381.684 54.845,382.009 54.004,382.610 51.792 C 382.683 51.523,382.481 51.500,380.019 51.500 L 377.349 51.500 377.185 52.042 C 376.444 54.482,375.227 55.902,373.069 56.847 C 367.222 59.406,361.165 55.900,360.593 49.625 L 360.491 48.500 371.557 48.500 L 382.623 48.500 382.726 47.875 C 382.988 46.291,382.779 43.629,382.270 42.083 C 382.150 41.717,381.954 41.119,381.835 40.756 C 381.593 40.015,380.528 38.210,379.991 37.630 C 378.896 36.446,378.061 35.667,377.890 35.667 C 377.782 35.667,377.669 35.610,377.639 35.542 C 377.561 35.366,376.544 34.667,376.367 34.667 C 376.286 34.667,375.777 34.451,375.235 34.187 C 373.565 33.374,370.077 32.900,367.750 33.171 M53.167 33.333 C 50.681 33.602,49.378 33.919,48.588 34.447 C 48.407 34.568,48.137 34.667,47.988 34.667 C 47.839 34.667,47.406 34.892,47.026 35.167 C 46.647 35.442,46.279 35.667,46.210 35.668 C 46.035 35.671,43.500 38.098,43.500 38.262 C 43.500 38.335,43.357 38.550,43.183 38.739 C 42.705 39.259,41.496 41.661,41.332 42.417 C 41.253 42.783,41.107 43.404,41.009 43.796 C 40.657 45.195,40.510 47.527,40.671 49.156 C 41.100 53.482,42.477 56.218,45.667 59.079 C 47.747 60.945,52.786 62.261,56.313 61.860 C 58.949 61.560,63.667 59.723,63.667 58.996 C 63.667 58.907,63.756 58.833,63.866 58.833 C 64.624 58.833,67.503 54.742,67.853 53.167 C 67.925 52.846,68.101 52.171,68.246 51.667 C 68.891 49.421,68.887 45.813,68.236 43.417 C 68.086 42.867,67.905 42.192,67.832 41.917 C 66.401 36.490,59.784 32.618,53.167 33.333 M86.250 33.487 C 84.880 33.842,83.919 34.226,83.761 34.483 C 83.698 34.584,83.517 34.667,83.357 34.667 C 83.039 34.667,80.500 37.002,80.500 37.294 C 80.500 37.394,80.398 37.578,80.274 37.702 C 80.150 37.826,79.928 38.150,79.781 38.422 C 79.525 38.894,79.513 38.798,79.507 36.292 L 79.500 33.667 77.000 33.667 L 74.500 33.667 74.500 47.583 L 74.500 61.500 77.000 61.500 L 79.500 61.500 79.502 53.042 C 79.504 44.050,79.512 43.947,80.342 42.000 C 82.634 36.626,90.175 35.692,93.777 40.336 C 94.167 40.839,94.490 41.346,94.493 41.464 C 94.497 41.581,94.669 42.144,94.875 42.714 C 95.244 43.732,95.251 43.902,95.300 52.625 L 95.350 61.500 97.758 61.500 L 100.167 61.500 100.159 52.375 C 100.151 42.319,100.042 40.954,99.105 39.148 C 98.864 38.683,98.667 38.228,98.667 38.137 C 98.667 37.478,96.341 35.245,94.667 34.296 C 92.847 33.265,88.660 32.863,86.250 33.487 M118.917 33.496 C 116.589 34.080,114.498 35.422,113.403 37.033 C 113.136 37.428,112.823 37.849,112.708 37.970 C 112.594 38.091,112.500 38.331,112.500 38.502 C 112.500 38.673,112.425 38.860,112.333 38.917 C 112.225 38.984,112.167 38.085,112.167 36.343 L 112.167 33.667 109.667 33.667 L 107.167 33.667 107.167 47.583 L 107.167 61.500 109.667 61.500 L 112.167 61.500 112.167 53.907 C 112.167 43.625,112.375 42.229,114.241 40.000 C 116.507 37.294,121.786 36.515,124.507 38.486 C 125.378 39.117,126.333 39.963,126.333 40.104 C 126.333 40.167,126.524 40.469,126.758 40.775 C 127.819 42.166,127.888 42.852,127.955 52.625 L 128.016 61.500 130.437 61.500 L 132.858 61.500 132.799 51.458 L 132.740 41.417 132.279 40.250 C 132.025 39.609,131.746 39.012,131.659 38.925 C 131.571 38.838,131.500 38.643,131.500 38.492 C 131.500 38.083,129.965 36.131,129.138 35.487 C 128.741 35.178,128.379 34.886,128.333 34.838 C 127.054 33.493,121.872 32.754,118.917 33.496 M298.204 43.208 L 298.256 52.917 298.799 54.575 C 299.753 57.493,302.607 60.833,304.145 60.833 C 304.304 60.833,304.505 60.901,304.592 60.984 C 305.828 62.164,310.807 62.150,313.750 60.958 C 315.686 60.173,318.333 57.870,318.333 56.970 C 318.333 56.803,318.402 56.667,318.486 56.667 C 318.570 56.667,318.714 56.460,318.806 56.208 C 318.931 55.868,318.977 56.467,318.987 58.542 L 319.000 61.333 321.417 61.333 L 323.833 61.333 323.833 47.417 L 323.833 33.500 321.428 33.500 L 319.022 33.500 318.959 41.875 C 318.887 51.374,318.796 52.121,317.456 54.190 C 316.796 55.209,315.334 56.550,314.667 56.749 C 314.438 56.818,314.175 56.932,314.083 57.003 C 312.861 57.951,309.192 57.859,307.147 56.828 C 303.535 55.008,303.168 53.621,303.167 41.792 L 303.167 33.500 300.659 33.500 L 298.152 33.500 298.204 43.208 M152.000 37.326 C 154.968 38.095,155.784 38.614,157.443 40.794 C 157.986 41.506,158.512 43.259,158.619 44.708 L 158.714 46.000 150.014 46.000 L 141.313 46.000 141.430 45.208 C 141.495 44.773,141.685 44.004,141.853 43.500 C 142.021 42.996,142.160 42.482,142.163 42.358 C 142.165 42.233,142.392 41.798,142.667 41.391 C 142.942 40.983,143.167 40.606,143.167 40.553 C 143.167 40.434,144.780 38.833,144.900 38.833 C 144.947 38.833,145.253 38.651,145.581 38.429 C 146.092 38.082,147.607 37.533,148.750 37.279 C 149.362 37.143,151.409 37.173,152.000 37.326 M371.423 37.437 C 371.970 37.585,372.604 37.747,372.833 37.797 C 375.172 38.303,377.519 41.558,377.636 44.458 L 377.699 46.000 369.099 46.000 C 364.370 46.000,360.502 45.944,360.505 45.875 C 360.745 40.050,366.025 35.969,371.423 37.437 M281.242 37.743 C 286.746 38.796,289.620 44.845,287.668 51.269 C 287.198 52.817,285.232 55.665,284.633 55.666 C 284.569 55.667,284.194 55.881,283.800 56.143 C 281.497 57.673,276.641 57.628,274.568 56.057 C 274.284 55.842,273.991 55.667,273.917 55.667 C 273.777 55.667,272.894 54.779,272.167 53.907 C 269.573 50.796,269.675 43.808,272.360 40.703 C 272.620 40.401,272.833 40.083,272.833 39.994 C 272.833 39.906,272.945 39.833,273.082 39.833 C 273.219 39.833,273.425 39.680,273.540 39.492 C 274.396 38.099,278.377 37.195,281.242 37.743 M58.298 38.360 C 60.237 39.261,62.667 41.596,62.667 42.558 C 62.667 42.673,62.735 42.838,62.818 42.925 C 63.571 43.715,63.964 48.476,63.436 50.417 C 63.141 51.502,62.330 53.500,62.185 53.500 C 62.123 53.500,61.944 53.717,61.787 53.982 C 61.485 54.494,60.374 55.667,60.192 55.667 C 60.132 55.667,59.865 55.855,59.598 56.084 C 57.561 57.836,52.090 57.853,49.796 56.114 C 47.745 54.560,47.042 53.572,46.032 50.833 C 45.427 49.193,45.762 43.953,46.526 43.092 C 46.603 43.005,46.667 42.810,46.667 42.659 C 46.667 42.270,48.297 40.125,49.044 39.531 C 51.437 37.629,55.595 37.103,58.298 38.360 " stroke="none" fill="#040404" fill-rule="evenodd"></path><path id="path2" d="" stroke="none" fill="#a09c28" fill-rule="evenodd"></path><path id="path3" d="" stroke="none" fill="#543428" fill-rule="evenodd"></path><path id="path4" d="" stroke="none" fill="#043828" fill-rule="evenodd"></path></g></svg>